HIERARCHY
ROOT Hips
{
	OFFSET 0.00000 0.00000 0.00000
	CHANNELS 6 Xposition Yposition Zposition Zrotation Yrotation Xrotation 
	JOINT LHipJoint
	{
		OFFSET 0 0 0
		CHANNELS 3 Zrotation Yrotation Xrotation
		JOINT LeftUpLeg
		{
			OFFSET 1.74857 -1.85566 0.69197
			CHANNELS 3 Zrotation Yrotation Xrotation
			JOINT LeftLeg
			{
				OFFSET 2.40003 -6.59403 0.00000
				CHANNELS 3 Zrotation Yrotation Xrotation
				JOINT LeftFoot
				{
					OFFSET 2.82169 -7.75254 0.00000
					CHANNELS 3 Zrotation Yrotation Xrotation
					JOINT LeftToeBase
					{
						OFFSET 0.16466 -0.45240 2.26890
						CHANNELS 3 Zrotation Yrotation Xrotation
						End Site
						{
							OFFSET 0.00000 -0.00000 1.16486
						}
					}
				}
			}
		}
	}
	JOINT RHipJoint
	{
		OFFSET 0 0 0
		CHANNELS 3 Zrotation Yrotation Xrotation
		JOINT RightUpLeg
		{
			OFFSET -1.64169 -1.85566 0.69197
			CHANNELS 3 Zrotation Yrotation Xrotation
			JOINT RightLeg
			{
				OFFSET -2.41814 -6.64379 0.00000
				CHANNELS 3 Zrotation Yrotation Xrotation
				JOINT RightFoot
				{
					OFFSET -2.80588 -7.70911 0.00000
					CHANNELS 3 Zrotation Yrotation Xrotation
					JOINT RightToeBase
					{
						OFFSET -0.19098 -0.52472 2.25401
						CHANNELS 3 Zrotation Yrotation Xrotation
						End Site
						{
							OFFSET -0.00000 -0.00000 1.16333
						}
					}
				}
			}
		}
	}
	JOINT LowerBack
	{
		OFFSET 0 0 0
		CHANNELS 3 Zrotation Yrotation Xrotation
		JOINT Spine
		{
			OFFSET -0.02828 2.14690 -0.11061
			CHANNELS 3 Zrotation Yrotation Xrotation
			JOINT Spine1
			{
				OFFSET -0.00167 2.15299 0.00759
				CHANNELS 3 Zrotation Yrotation Xrotation
				JOINT Neck
				{
					OFFSET 0 0 0
					CHANNELS 3 Zrotation Yrotation Xrotation
					JOINT Neck1
					{
						OFFSET -0.09296 1.90118 0.07197
						CHANNELS 3 Zrotation Yrotation Xrotation
						JOINT Head
						{
							OFFSET 0.08490 1.89526 -0.24604
							CHANNELS 3 Zrotation Yrotation Xrotation
							End Site
							{
								OFFSET 0.03186 1.92109 -0.09483
							}
						}
					}
				}
				JOINT LeftShoulder
				{
					OFFSET 0 0 0
					CHANNELS 3 Zrotation Yrotation Xrotation
					JOINT LeftArm
					{
						OFFSET 3.21569 1.44644 -0.03720
						CHANNELS 3 Zrotation Yrotation Xrotation
						JOINT LeftForeArm
						{
							OFFSET 5.47651 -0.00000 -0.00000
							CHANNELS 3 Zrotation Yrotation Xrotation
							JOINT LeftHand
							{
								OFFSET 3.09058 -0.00000 -0.00000
								CHANNELS 3 Zrotation Yrotation Xrotation
								JOINT LeftFingerBase
								{
									OFFSET 0 0 0
									CHANNELS 3 Zrotation Yrotation Xrotation
									JOINT LeftHandIndex1
									{
										OFFSET 0.77161 -0.00000 -0.00000
										CHANNELS 3 Zrotation Yrotation Xrotation
										End Site
										{
											OFFSET 0.62209 -0.00000 -0.00000
										}
									}
								}
								JOINT LThumb
								{
									OFFSET 0 0 0
									CHANNELS 3 Zrotation Yrotation Xrotation
									End Site
									{
										OFFSET 0.63159 -0.00000 0.63159
									}
								}
							}
						}
					}
				}
				JOINT RightShoulder
				{
					OFFSET 0 0 0
					CHANNELS 3 Zrotation Yrotation Xrotation
					JOINT RightArm
					{
						OFFSET -3.38693 1.28904 -0.07093
						CHANNELS 3 Zrotation Yrotation Xrotation
						JOINT RightForeArm
						{
							OFFSET -5.14182 -0.00000 -0.00000
							CHANNELS 3 Zrotation Yrotation Xrotation
							JOINT RightHand
							{
								OFFSET -3.35565 -0.00000 -0.00000
								CHANNELS 3 Zrotation Yrotation Xrotation
								JOINT RightFingerBase
								{
									OFFSET 0 0 0
									CHANNELS 3 Zrotation Yrotation Xrotation
									JOINT RightHandIndex1
									{
										OFFSET -0.80104 -0.00000 -0.00000
										CHANNELS 3 Zrotation Yrotation Xrotation
										End Site
										{
											OFFSET -0.64582 -0.00000 -0.00000
										}
									}
								}
								JOINT RThumb
								{
									OFFSET 0 0 0
									CHANNELS 3 Zrotation Yrotation Xrotation
									End Site
									{
										OFFSET -0.65568 -0.00000 0.65568
									}
								}
							}
						}
					}
				}
			}
		}
	}
}
MOTION
Frames: 10
Frame Time: .0083333
0.4778 16.8792 -0.7592 4.3676 -2.6992 6.4070 0.0000 0.0000 0.0000 -23.5119 -9.9169 -25.7945 6.9802 15.3152 48.7992 2.4894 -0.4330 -29.7735 0.7452 -5.5144 -15.3817 0.0000 0.0000 0.0000 9.3802 13.6661 -27.1840 -7.7496 -15.9320 51.6557 -2.3132 -4.6206 -30.6623 -0.7600 5.5677 -15.5350 3.8280 3.0422 7.1082 -0.9947 4.3553 -1.3589 -3.6633 2.0259 -5.0370 -4.6502 1.1573 2.4054 4.7329 1.2306 8.8458 2.3534 0.5848 2.3443 0.0000 -0.0000 0.0000 -41.0759 7.0699 -23.4870 130.0325 -52.9824 -93.8518 -0.0000 -0.0000 15.4930 14.0997 33.9393 7.9828 -7.1250 0.0000 -0.0000 -23.0063 63.2907 -10.4927 0.0000 -0.0000 0.0000 47.9887 -16.5164 94.7424 -79.1585 59.5512 -50.6252 0.0000 -0.0000 -0.3240 -10.2787 33.8291 -5.7650 7.1250 -0.0000 -0.0000 12.2350 3.5929 13.2763
0.4765 16.8783 -0.7605 4.3694 -2.7020 6.3942 0.0000 0.0000 0.0000 -23.5083 -9.9279 -25.7807 6.9777 15.3131 48.7900 2.4855 -0.4495 -29.7450 0.7220 -5.4297 -15.1384 0.0000 0.0000 0.0000 9.3860 13.6985 -27.1624 -7.7506 -15.9327 51.6593 -2.3095 -4.6563 -30.6572 -0.7637 5.5808 -15.5729 3.8175 3.0498 7.1455 -1.0059 4.3655 -1.3615 -3.6729 2.0303 -5.0599 -4.7087 1.1540 2.3995 4.7683 1.2239 8.8578 2.3762 0.5804 2.3497 -0.0000 -0.0000 0.0000 -41.0880 7.0082 -23.5261 129.9883 -53.0002 -93.8165 -0.0000 -0.0000 15.4618 14.0680 33.9528 7.9671 -7.1250 0.0000 -0.0000 -23.0542 63.2945 -10.5178 -0.0000 -0.0000 0.0000 47.9892 -16.5477 94.7233 -79.1188 59.5479 -50.5909 0.0000 -0.0000 -0.2722 -10.3406 33.9777 -5.8225 7.1250 -0.0000 -0.0000 12.2131 3.7468 13.2823
0.4765 16.8786 -0.7614 4.3659 -2.6905 6.3895 0.0000 0.0000 0.0000 -23.5033 -9.9215 -25.7853 6.9799 15.3150 48.7983 2.4930 -0.4427 -29.7922 0.7371 -5.4850 -15.2971 0.0000 0.0000 0.0000 9.3909 13.6859 -27.1612 -7.7524 -15.9341 51.6660 -2.3132 -4.6392 -30.6716 -0.7653 5.5865 -15.5893 3.8289 3.0467 7.1576 -1.0223 4.3620 -1.3627 -3.6968 2.0278 -5.0662 -4.7413 1.1566 2.4324 4.7938 1.2249 8.8289 2.3898 0.5802 2.3342 0.0000 0.0000 0.0000 -41.0908 6.9595 -23.5932 129.9151 -53.0297 -93.7580 -0.0000 -0.0000 15.4825 13.9067 33.8144 7.8454 -7.1250 0.0000 -0.0000 -23.0938 63.1273 -10.4464 0.0000 0.0000 0.0000 48.0000 -16.5128 94.7585 -79.0466 59.5418 -50.5287 0.0000 -0.0000 -0.2590 -10.4606 33.9959 -5.8939 7.1250 -0.0000 -0.0000 12.1489 3.7818 13.2163
0.4761 16.8778 -0.7630 4.3674 -2.6675 6.3985 0.0000 0.0000 0.0000 -23.5007 -9.9222 -25.8094 6.9835 15.3180 48.8121 2.5002 -0.3705 -29.8576 0.7857 -5.6586 -15.7971 0.0000 0.0000 0.0000 9.3885 13.6604 -27.1857 -7.7567 -15.9373 51.6814 -2.3209 -4.5941 -30.6969 -0.7457 5.5160 -15.3863 3.8044 3.0361 7.1519 -1.0218 4.3455 -1.3628 -3.6807 2.0204 -5.0663 -4.7700 1.1609 2.4261 4.7877 1.2318 8.8128 2.3928 0.5826 2.3296 -0.0000 -0.0000 0.0000 -41.1119 6.9602 -23.6188 129.9137 -53.0302 -93.7569 -0.0000 -0.0000 15.5049 13.9264 33.6982 7.8333 -7.1250 0.0000 -0.0000 -22.9591 63.0272 -10.3283 -0.0000 -0.0000 0.0000 47.9878 -16.4915 94.7905 -79.0487 59.5419 -50.5305 0.0000 -0.0000 -0.2053 -10.6218 33.9391 -5.9774 7.1250 -0.0000 -0.0000 12.0559 3.7498 13.1043
0.4751 16.8763 -0.7660 4.3731 -2.6339 6.4060 0.0000 0.0000 0.0000 -23.5002 -9.9617 -25.8299 6.9877 15.3215 48.8276 2.4917 -0.3058 -29.8260 0.8144 -5.7589 -16.0863 0.0000 0.0000 0.0000 9.3851 13.6704 -27.2032 -7.7622 -15.9415 51.7015 -2.3240 -4.5928 -30.7148 -0.7285 5.4534 -15.2063 3.7857 3.0295 7.1652 -1.0281 4.3352 -1.3666 -3.6769 2.0153 -5.0796 -4.7494 1.1546 2.4561 4.7242 1.2277 8.7539 2.3662 0.5796 2.3049 0.0000 -0.0000 0.0000 -41.1167 6.9534 -23.6016 129.9040 -53.0341 -93.7492 -0.0000 -0.0000 15.5374 14.0387 33.7304 7.9048 -7.1250 0.0000 -0.0000 -22.8683 63.0855 -10.3164 0.0000 -0.0000 0.0000 48.0133 -16.5006 94.7728 -79.0388 59.5411 -50.5220 0.0000 -0.0000 -0.2314 -10.5525 33.9472 -5.9390 7.1250 -0.0000 -0.0000 12.0945 3.7477 13.1477
0.4749 16.8756 -0.7665 4.3925 -2.6121 6.3950 0.0000 0.0000 0.0000 -23.5221 -9.9762 -25.8185 6.9888 15.3224 48.8319 2.4809 -0.3621 -29.7437 0.7853 -5.6572 -15.7930 0.0000 0.0000 0.0000 9.3612 13.6610 -27.2018 -7.7682 -15.9461 51.7234 -2.3209 -4.6489 -30.7230 -0.7427 5.5051 -15.3550 3.7620 3.0157 7.1570 -1.0447 4.3131 -1.3496 -3.6774 2.0057 -5.0594 -4.7174 1.1582 2.4773 4.6743 1.2363 8.6989 2.3425 0.5835 2.2824 -0.0000 0.0000 0.0000 -41.1340 6.9442 -23.6207 129.8791 -53.0441 -93.7293 -0.0000 -0.0000 15.6242 14.1430 33.7342 7.9660 -7.1250 0.0000 -0.0000 -22.7587 63.1162 -10.2807 -0.0000 0.0000 0.0000 48.0432 -16.4510 94.7756 -79.0116 59.5388 -50.4985 0.0000 -0.0000 -0.2620 -10.4061 33.9789 -5.8601 7.1250 -0.0000 -0.0000 12.1773 3.7574 13.2438
0.4751 16.8757 -0.7671 4.4450 -2.5987 6.3944 0.0000 0.0000 0.0000 -23.5768 -10.0027 -25.8132 6.9879 15.3217 48.8286 2.4825 -0.4324 -29.7316 0.7500 -5.5316 -15.4311 0.0000 0.0000 0.0000 9.2971 13.6365 -27.2260 -7.7744 -15.9508 51.7460 -2.3201 -4.6398 -30.7139 -0.7386 5.4901 -15.3120 3.7024 3.0114 7.1509 -1.0867 4.2994 -1.3379 -3.6856 2.0008 -5.0458 -4.6498 1.1544 2.3922 4.6550 1.2345 8.7578 2.3258 0.5851 2.3172 0.0000 -0.0000 0.0000 -41.0819 6.9111 -23.6320 129.8196 -53.0680 -93.6817 -0.0000 -0.0000 15.6260 14.3286 33.7824 8.0836 -7.1250 0.0000 -0.0000 -22.6031 63.2082 -10.2554 0.0000 -0.0000 0.0000 48.1127 -16.4271 94.7486 -78.9890 59.5369 -50.4790 0.0000 -0.0000 -0.2505 -10.3537 33.9745 -5.8295 7.1250 -0.0000 -0.0000 12.2057 3.7455 13.2736
0.4746 16.8745 -0.7685 4.4761 -2.5837 6.4213 0.0000 0.0000 0.0000 -23.6046 -10.0207 -25.8499 6.9887 15.3224 48.8316 2.4847 -0.2649 -29.7963 0.8221 -5.7853 -16.1627 0.0000 0.0000 0.0000 9.2588 13.6425 -27.2780 -7.7809 -15.9557 51.7696 -2.3101 -4.7224 -30.6926 -0.7536 5.5447 -15.4688 3.6837 3.0346 7.1288 -1.1446 4.3252 -1.3427 -3.7367 2.0137 -5.0330 -4.6064 1.1239 2.3955 4.6888 1.1923 8.7259 2.3283 0.5663 2.3082 -0.0000 0.0000 0.0000 -40.9862 6.8080 -23.5839 129.7697 -53.0880 -93.6418 -0.0000 -0.0000 15.6182 14.4245 33.9755 8.1797 -7.1250 0.0000 -0.0000 -22.6872 63.4087 -10.4021 -0.0000 0.0000 0.0000 48.2108 -16.5113 94.6831 -78.9933 59.5372 -50.4827 0.0000 -0.0000 -0.2291 -10.3823 33.9471 -5.8417 7.1250 -0.0000 -0.0000 12.1878 3.7229 13.2488
0.4746 16.8740 -0.7681 4.4968 -2.5833 6.4004 0.0000 0.0000 0.0000 -23.6344 -9.9997 -25.8249 6.9894 15.3230 48.8343 2.4881 -0.2628 -29.8171 0.8288 -5.8083 -16.2291 0.0000 0.0000 0.0000 9.2408 13.6228 -27.2666 -7.7867 -15.9601 51.7907 -2.3114 -4.7317 -30.7047 -0.7525 5.5404 -15.4565 3.6809 3.0548 7.1360 -1.1875 4.3499 -1.3299 -3.7823 2.0260 -5.0183 -4.6525 1.0919 2.4356 4.7556 1.1445 8.6831 2.3575 0.5423 2.2894 0.0000 -0.0000 0.0000 -40.9281 6.7612 -23.5478 129.7739 -53.0863 -93.6452 -0.0000 -0.0000 15.6032 14.4473 34.1512 8.2297 -7.1250 0.0000 -0.0000 -22.8366 63.5740 -10.5625 0.0000 -0.0000 0.0000 48.2942 -16.5663 94.6345 -78.9153 59.5306 -50.4155 0.0000 -0.0000 -0.1904 -10.4929 33.9055 -5.8986 7.1250 -0.0000 -0.0000 12.1237 3.6982 13.1711
0.4748 16.8732 -0.7690 4.4909 -2.5619 6.4128 0.0000 0.0000 0.0000 -23.6226 -10.0122 -25.8515 6.9931 15.3261 48.8481 2.4821 -0.3203 -29.7636 0.8113 -5.7479 -16.0548 0.0000 0.0000 0.0000 9.2411 13.6069 -27.2988 -7.7941 -15.9657 51.8175 -2.3168 -4.7051 -30.7245 -0.7404 5.4970 -15.3317 3.6711 3.0479 7.1247 -1.1933 4.3393 -1.3354 -3.7812 2.0209 -5.0189 -4.7427 1.0851 2.4007 4.8135 1.1309 8.7628 2.3952 0.5343 2.3230 -0.0000 0.0000 0.0000 -40.9133 6.8083 -23.5441 129.7933 -53.0785 -93.6607 -0.0000 -0.0000 15.5997 14.3439 34.1584 8.1706 -7.1250 0.0000 -0.0000 -22.9569 63.5531 -10.6099 -0.0000 0.0000 0.0000 48.2744 -16.5748 94.6559 -78.9194 59.5309 -50.4190 0.0000 -0.0000 -0.2381 -10.5110 33.8281 -5.8971 7.1250 -0.0000 -0.0000 12.1075 3.6253 13.1381
